<svg width="458" height="457" viewBox="0 0 458 457" fill="none" xmlns="http://www.w3.org/2000/svg">
<path d="M0 40C0 17.9086 17.9086 0 40 0H417C439.091 0 457 17.9086 457 40V412C457 436.853 436.853 457 412 457H0V40Z" fill="url(#paint0_linear_110_62)"/>
<path d="M447.814 361.891H457.143V417.326C457.143 425.659 455.295 432.77 451.599 438.658C447.904 444.636 442.541 449.165 435.51 452.244C428.48 455.415 411.881 457 401.786 457H0L3.96477e-05 447.625C3.96477e-05 447.625 405.357 447.625 408.268 447.625C420.901 447.424 430.58 444.751 437.133 439.609C443.713 434.536 447.003 427.109 447.003 417.326V415.831L448.084 416.103C446.011 420.089 442.902 423.531 438.755 426.429C434.609 429.237 429.246 430.687 422.666 430.777C416.447 430.777 410.994 429.373 406.307 426.565C401.71 423.667 398.105 419.591 395.491 414.337C392.967 409.083 391.705 402.924 391.705 395.859C391.705 388.793 392.967 382.679 395.491 377.516C398.105 372.263 401.71 368.187 406.307 365.288C410.994 362.389 416.447 360.94 422.666 360.94C426.722 360.94 430.328 361.574 433.482 362.842C436.637 364.02 439.341 365.65 441.595 367.734C443.848 369.726 445.696 371.991 447.138 374.527L447.814 361.891ZM402.656 395.859C402.656 403.649 404.639 409.853 408.605 414.473C412.661 419.002 418.115 421.266 424.965 421.266C429.111 421.266 432.851 420.27 436.186 418.277C439.521 416.284 442.135 413.386 444.028 409.581C446.011 405.777 447.003 401.203 447.003 395.859C447.003 390.514 446.011 385.985 444.028 382.272C442.135 378.467 439.521 375.569 436.186 373.576C432.851 371.493 429.111 370.451 424.965 370.451C418.205 370.451 412.797 372.761 408.741 377.38C404.684 382 402.656 388.159 402.656 395.859Z" fill="#BAFDEF"/>
<path d="M9.03922 375.366C11.018 371.223 14.121 367.755 18.3483 364.963C22.5756 362.171 27.9271 360.775 34.403 360.775C40.609 360.775 46.0056 362.216 50.5926 365.098C55.2697 367.98 58.8674 372.033 61.3857 377.257C63.9941 382.391 65.2982 388.47 65.2982 395.495C65.2982 402.52 63.9941 408.644 61.3857 413.868C58.7774 419.091 55.1347 423.144 50.4577 426.026C45.8707 428.818 40.5191 430.214 34.403 430.214C28.2869 430.214 23.2052 428.908 19.1577 426.296C15.1103 423.685 12.0523 420.487 9.98362 416.705L9.30905 429.269H0V332H10.1185V375.501L9.03922 375.366ZM54.3702 395.495C54.3702 387.749 52.3465 381.625 48.2991 377.122C44.3416 372.529 38.9901 370.232 32.2444 370.232C28.0171 370.232 24.1945 371.268 20.7767 373.339C17.4488 375.321 14.8405 378.203 12.9517 381.985C11.0629 385.678 10.1185 390.181 10.1185 395.495C10.1185 400.809 11.0629 405.357 12.9517 409.139C14.8405 412.922 17.4488 415.804 20.7767 417.785C24.1945 419.767 28.0171 420.758 32.2444 420.758C38.9901 420.758 44.3416 418.506 48.2991 414.003C52.3465 409.41 54.3702 403.24 54.3702 395.495Z" fill="#BAFDEF"/>
<path d="M110.15 430.214C103.854 430.214 98.2323 428.683 93.2855 425.621C88.4286 422.559 84.606 418.371 81.8178 413.057C79.0296 407.743 77.6355 401.664 77.6355 394.819C77.6355 388.245 79.0296 382.391 81.8178 377.257C84.606 372.123 88.4286 368.115 93.2855 365.233C98.1424 362.261 103.674 360.775 109.88 360.775C115.996 360.775 121.437 362.126 126.204 364.828C131.061 367.53 134.839 371.268 137.537 376.041C140.235 380.814 141.495 386.263 141.315 392.388C141.315 393.378 141.27 394.414 141.18 395.495C141.09 396.576 141 397.746 140.91 399.007H88.6984C88.8783 403.24 89.9126 406.978 91.8014 410.22C93.6902 413.462 96.1636 416.029 99.2217 417.921C102.37 419.722 105.922 420.622 109.88 420.622C115.097 420.622 119.504 419.632 123.101 417.65C126.789 415.669 129.442 412.832 131.061 409.139L139.831 412.652C137.132 418.326 133.22 422.694 128.093 425.756C122.966 428.728 116.985 430.214 110.15 430.214ZM130.252 390.226C130.342 386.353 129.487 382.931 127.688 379.959C125.98 376.987 123.551 374.645 120.403 372.934C117.255 371.223 113.612 370.367 109.475 370.367C105.877 370.367 102.595 371.223 99.6264 372.934C96.6583 374.645 94.1849 377.032 92.2061 380.094C90.3174 383.066 89.1931 386.443 88.8333 390.226H130.252Z" fill="#BAFDEF"/>
<path d="M210.047 375.366L208.968 375.501V332H219.086V429.269H209.777L209.103 416.705C207.034 420.487 203.931 423.685 199.794 426.296C195.746 428.908 190.709 430.214 184.683 430.214C178.477 430.214 173.036 428.818 168.359 426.026C163.772 423.144 160.174 419.091 157.566 413.868C155.047 408.644 153.788 402.52 153.788 395.495C153.788 388.47 155.047 382.391 157.566 377.257C160.174 372.033 163.772 367.98 168.359 365.098C173.036 362.216 178.477 360.775 184.683 360.775C191.069 360.775 196.376 362.171 200.603 364.963C204.83 367.755 207.978 371.223 210.047 375.366ZM164.716 395.495C164.716 403.24 166.695 409.41 170.652 414.003C174.61 418.506 180.006 420.758 186.842 420.758C191.069 420.758 194.847 419.767 198.175 417.785C201.502 415.804 204.111 412.922 206 409.139C207.978 405.357 208.968 400.809 208.968 395.495C208.968 390.181 207.978 385.678 206 381.985C204.111 378.203 201.502 375.321 198.175 373.339C194.847 371.268 191.069 370.232 186.842 370.232C180.096 370.232 174.7 372.529 170.652 377.122C166.695 381.625 164.716 387.749 164.716 395.495Z" fill="#BAFDEF"/>
<path d="M248.827 375.366C250.806 371.223 253.909 367.755 258.136 364.963C262.364 362.171 267.715 360.775 274.191 360.775C280.397 360.775 285.794 362.216 290.381 365.098C295.058 367.98 298.655 372.033 301.174 377.257C303.782 382.391 305.086 388.47 305.086 395.495C305.086 402.52 303.782 408.644 301.174 413.868C298.565 419.091 294.923 423.144 290.246 426.026C285.659 428.818 280.307 430.214 274.191 430.214C268.075 430.214 262.993 428.908 258.946 426.296C254.898 423.685 251.84 420.487 249.772 416.705L249.097 429.269H239.788V332H249.907V375.501L248.827 375.366ZM294.158 395.495C294.158 387.749 292.135 381.625 288.087 377.122C284.13 372.529 278.778 370.232 272.032 370.232C267.805 370.232 263.983 371.268 260.565 373.339C257.237 375.321 254.629 378.203 252.74 381.985C250.851 385.678 249.907 390.181 249.907 395.495C249.907 400.809 250.851 405.357 252.74 409.139C254.629 412.922 257.237 415.804 260.565 417.785C263.983 419.767 267.805 420.758 272.032 420.758C278.778 420.758 284.13 418.506 288.087 414.003C292.135 409.41 294.158 403.24 294.158 395.495Z" fill="#BAFDEF"/>
<path d="M376.786 429.269H367.611L366.937 419.542C364.868 422.964 362.08 425.621 358.572 427.512C355.064 429.314 350.972 430.214 346.295 430.214C341.078 430.214 336.536 429.133 332.669 426.972C328.801 424.81 325.788 421.568 323.63 417.245C321.561 412.922 320.527 407.473 320.527 400.899V361.721H330.51V399.818C330.51 406.753 331.994 412.021 334.962 415.624C338.02 419.136 342.383 420.893 348.049 420.893C353.805 420.893 358.347 419.046 361.675 415.354C365.093 411.571 366.802 405.897 366.802 398.332V361.721H376.786V429.269Z" fill="#BAFDEF"/>
<defs>
<linearGradient id="paint0_linear_110_62" x1="228.5" y1="0" x2="228.5" y2="457" gradientUnits="userSpaceOnUse">
<stop stop-color="#3E4D5D"/>
<stop offset="1" stop-color="#F92C51"/>
</linearGradient>
</defs>
</svg>
